<svg enable-background="new 0 0 512 512" height="512" viewBox="0 0 512 512" width="512" xmlns="http://www.w3.org/2000/svg"><g id="_x39_3_Budget_Accounting"><g><g><path d="m382.787 7.606c-8.932 0-17.017 3.592-22.884 9.46-5.867 5.866-9.46 13.899-9.46 22.83v400.02c0 4.439-.898 8.72-2.537 12.578-.793 1.904-1.797 3.752-2.96 5.445-.581.898-1.163 1.69-1.85 2.483-.634.846-1.321 1.587-2.061 2.325h-.053c-5.866 5.868-13.952 9.46-22.884 9.46h-278.201v-432.31c0-8.931 3.594-16.965 9.46-22.83 5.866-5.868 13.952-9.46 22.884-9.46h310.546z" fill="#e8f1f8"/></g><g><path d="m382.787 7.606c-8.932 0-17.017 3.595-22.884 9.46-5.867 5.866-9.46 13.899-9.46 22.83v400.02c0 4.441-.898 8.722-2.537 12.58-.793 1.902-1.797 3.752-2.96 5.442-.581.898-1.163 1.69-1.85 2.485-.634.844-1.321 1.584-2.061 2.325h-.053c-5.866 5.866-13.952 9.46-22.884 9.46h-278.201v-45.557c144.016-26.954 253.045-153.37 253.045-305.208v-113.837z" opacity=".12"/></g><g><path d="m318.099 472.207h-278.255c-17.81 0-32.238-14.48-32.238-32.29v-24.311h278.254v24.311c0 17.81 14.428 32.29 32.239 32.29z" fill="#acbadf"/></g><g><path d="m447.422 374.752h-96.98v-334.855c0-8.931 3.594-16.965 9.46-22.83 5.866-5.868 13.952-9.46 22.884-9.46 17.81 0 32.291 14.479 32.291 32.29v302.511c.001 17.865 14.482 32.344 32.345 32.344z" fill="#acbadf"/></g><g><path d="m415.09 142.83v199.588c0 17.852 14.471 32.324 32.323 32.324s32.323-14.472 32.323-32.324v-199.588z" fill="#e8f1f8"/></g><g><path d="m504.391 262.975v222.055c0 10.694-8.669 19.363-19.363 19.363h-160.468c-10.694 0-19.363-8.669-19.363-19.363v-222.055c0-10.694 8.669-19.363 19.363-19.363h160.468c10.694 0 19.363 8.669 19.363 19.363z" fill="#475da9"/></g><g><path d="m504.394 262.978v222.05c0 10.698-8.665 19.363-19.363 19.363h-160.474c-10.698 0-19.363-8.665-19.363-19.363v-7.479h53.661c65.569 0 118.697-53.128 118.697-118.673v-115.261h7.479c10.698 0 19.363 8.665 19.363 19.363z" opacity=".12"/></g><g><path d="m477.767 327.427v-50.945c0-4.01-3.251-7.261-7.261-7.261h-131.421c-4.01 0-7.261 3.251-7.261 7.261v50.945c0 4.01 3.251 7.261 7.261 7.261h131.421c4.011.001 7.261-3.25 7.261-7.261z" fill="#acbadf"/></g><g><path d="m369.172 363.943v11.834c0 5.212-4.225 9.438-9.438 9.438h-18.476c-5.212 0-9.438-4.225-9.438-9.438v-11.834c0-5.212 4.225-9.438 9.438-9.438h18.476c5.212 0 9.438 4.226 9.438 9.438z" fill="#f78721"/></g><g><path d="m423.47 363.943v11.834c0 5.212-4.225 9.438-9.438 9.438h-18.476c-5.212 0-9.438-4.225-9.438-9.438v-11.834c0-5.212 4.225-9.438 9.438-9.438h18.476c5.212 0 9.438 4.226 9.438 9.438z" fill="#e8f1f8"/></g><g><path d="m477.767 363.943v11.834c0 5.212-4.225 9.438-9.438 9.438h-18.476c-5.212 0-9.438-4.225-9.438-9.438v-11.834c0-5.212 4.225-9.438 9.438-9.438h18.476c5.213 0 9.438 4.226 9.438 9.438z" fill="#e8f1f8"/></g><g><path d="m369.172 410.724v11.834c0 5.212-4.225 9.438-9.438 9.438h-18.476c-5.212 0-9.438-4.225-9.438-9.438v-11.834c0-5.212 4.225-9.438 9.438-9.438h18.476c5.212 0 9.438 4.226 9.438 9.438z" fill="#e8f1f8"/></g><g><path d="m423.47 410.724v11.834c0 5.212-4.225 9.438-9.438 9.438h-18.476c-5.212 0-9.438-4.225-9.438-9.438v-11.834c0-5.212 4.225-9.438 9.438-9.438h18.476c5.212 0 9.438 4.226 9.438 9.438z" fill="#e8f1f8"/></g><g><path d="m369.172 457.505v11.834c0 5.212-4.225 9.438-9.438 9.438h-18.476c-5.212 0-9.438-4.225-9.438-9.438v-11.834c0-5.212 4.225-9.438 9.438-9.438h18.476c5.212 0 9.438 4.226 9.438 9.438z" fill="#e8f1f8"/></g><g><path d="m423.47 457.505v11.834c0 5.212-4.225 9.438-9.438 9.438h-18.476c-5.212 0-9.438-4.225-9.438-9.438v-11.834c0-5.212 4.225-9.438 9.438-9.438h18.476c5.212 0 9.438 4.226 9.438 9.438z" fill="#e8f1f8"/></g><g><path d="m477.76 410.713v58.611c0 5.232-4.228 9.46-9.407 9.46h-18.497c-5.232 0-9.46-4.228-9.46-9.46v-58.611c0-5.179 4.228-9.406 9.46-9.406h18.497c5.178 0 9.407 4.227 9.407 9.406z" fill="#fdcf17"/></g><g><path d="m446.182 327.126c-9.352 0-16.962-7.613-16.962-16.965v-16.412c0-9.352 7.61-16.965 16.962-16.965 9.355 0 16.965 7.613 16.965 16.965v16.412c-.001 9.352-7.611 16.965-16.965 16.965zm0-39.772c-3.525 0-6.392 2.87-6.392 6.395v16.412c0 3.525 2.867 6.395 6.392 6.395s6.395-2.87 6.395-6.395v-16.412c-.001-3.525-2.87-6.395-6.395-6.395z" fill="#474747"/></g><g><path d="m211.342 112.174c0 36.371-29.463 65.834-65.815 65.834s-65.834-29.463-65.834-65.834c0-36.352 29.482-65.815 65.834-65.815s65.815 29.463 65.815 65.815z" fill="#fdcf17"/></g><g><path d="m149.619 142.296h-20.619c-2.919 0-5.285-2.364-5.285-5.285s2.366-5.285 5.285-5.285h20.619c3.933 0 7.13-3.2 7.13-7.128 0-3.933-3.197-7.133-7.13-7.133h-8.204c-9.76 0-17.7-7.938-17.7-17.697s7.94-17.697 17.7-17.697h20.619c2.919 0 5.285 2.364 5.285 5.285s-2.366 5.285-5.285 5.285h-20.619c-3.933 0-7.13 3.2-7.13 7.127s3.197 7.127 7.13 7.127h8.204c9.76 0 17.7 7.943 17.7 17.703s-7.94 17.698-17.7 17.698z" fill="#f78721"/></g><g><path d="m145.514 152.618c-2.919 0-5.285-2.364-5.285-5.285v-10.322c0-2.921 2.366-5.285 5.285-5.285s5.285 2.364 5.285 5.285v10.322c-.001 2.921-2.367 5.285-5.285 5.285z" fill="#f78721"/></g><g><path d="m145.514 92.641c-2.919 0-5.285-2.364-5.285-5.285v-10.322c0-2.921 2.366-5.285 5.285-5.285s5.285 2.364 5.285 5.285v10.322c-.001 2.921-2.367 5.285-5.285 5.285z" fill="#f78721"/></g><g><path d="m118.924 342.069v35.748c0 3.801-3.081 6.882-6.882 6.882h-25.467c-3.801 0-6.882-3.081-6.882-6.882v-35.748c0-3.801 3.081-6.882 6.882-6.882h25.468c3.8 0 6.881 3.081 6.881 6.882z" fill="#f14f4a"/></g><g><path d="m118.92 342.058v35.759c0 3.808-3.074 6.882-6.882 6.882h-25.463c-3.808 0-6.882-3.074-6.882-6.882v-.642c17.572-.321 31.725-14.682 31.725-32.345v-9.654h.619c3.809 0 6.883 3.096 6.883 6.882z" opacity=".12"/></g><g><path d="m173.443 283.163v94.654c0 3.801-3.081 6.882-6.882 6.882h-25.468c-3.801 0-6.882-3.081-6.882-6.882v-94.654c0-3.801 3.081-6.882 6.882-6.882h25.468c3.801 0 6.882 3.081 6.882 6.882z" fill="#f14f4a"/></g><g><path d="m173.438 283.151v94.666c0 3.808-3.074 6.882-6.882 6.882h-25.463c-3.808 0-6.882-3.074-6.882-6.882v-.642c17.572-.321 31.725-14.682 31.725-32.345v-68.56h.619c3.81 0 6.883 3.096 6.883 6.881z" opacity=".12"/></g><g><path d="m227.962 309.411v68.406c0 3.801-3.081 6.882-6.882 6.882h-25.468c-3.801 0-6.882-3.081-6.882-6.882v-68.406c0-3.801 3.081-6.882 6.882-6.882h25.468c3.801.001 6.882 3.082 6.882 6.882z" fill="#f14f4a"/></g><g><path d="m227.957 309.4v68.417c0 3.808-3.074 6.882-6.882 6.882h-25.463c-3.808 0-6.882-3.074-6.882-6.882v-.642c17.572-.321 31.725-14.682 31.725-32.345v-42.312h.619c3.809 0 6.883 3.097 6.883 6.882z" opacity=".12"/></g><g><path d="m282.481 250.505v127.312c0 3.801-3.081 6.882-6.882 6.882h-25.468c-3.801 0-6.882-3.081-6.882-6.882v-127.312c0-3.801 3.081-6.882 6.882-6.882h25.468c3.801 0 6.882 3.081 6.882 6.882z" fill="#f14f4a"/></g><g><path d="m282.476 250.494v127.323c0 3.808-3.074 6.882-6.882 6.882h-25.463c-3.808 0-6.882-3.074-6.882-6.882v-.642c17.572-.321 31.725-14.682 31.725-32.345v-101.218h.619c3.809 0 6.883 3.096 6.883 6.882z" opacity=".12"/></g><g><path d="m173.443 213.442h-93.749c-2.919 0-5.285-2.364-5.285-5.285s2.366-5.285 5.285-5.285h93.749c2.919 0 5.285 2.364 5.285 5.285s-2.367 5.285-5.285 5.285z" fill="#474747"/></g><g><path d="m142.938 248.909h-63.244c-2.919 0-5.285-2.364-5.285-5.285s2.366-5.285 5.285-5.285h63.244c2.919 0 5.285 2.364 5.285 5.285s-2.366 5.285-5.285 5.285z" fill="#474747"/></g></g></g></svg>