<svg id="Layer_1" enable-background="new 0 0 468 468" height="512" viewBox="0 0 468 468" width="512" xmlns="http://www.w3.org/2000/svg"><g><g><g><path d="m330.666 453.582v-115.94c0-62.785-50.65-113.682-113.13-113.682h-55.406c-62.48 0-113.13 50.897-113.13 113.682v115.94z" fill="#52c1ff"/><g><path d="m264.494 359.569h66.172v94.013h-66.172z" fill="#f9c7a5" transform="matrix(-1 0 0 -1 595.159 813.15)"/></g><g><g><path d="m49 359.569h60.574v94.013h-60.574z" fill="#f9c7a5"/></g></g></g><path d="m191.634 271.746h-3.603c-17.519 0-31.721-14.202-31.721-31.721v-76.792h67.045v76.792c0 17.519-14.202 31.721-31.721 31.721z" fill="#f9c7a5"/><g><ellipse cx="189.92" cy="120.682" fill="#fcdeca" rx="82.258" ry="92.595"/><path d="m109.77 118.436c2.569 2.85-38.266-52.361-2.944-68.176-5.915-13.508 3.553-50.867 39.556-50.252h48.585c126.786 7.954 83.541 112.337 76.516 118.428-40.244 0-79.062-14.892-108.964-41.802l-4.234-3.811-.033.086c-8.27 21.833-26.159 38.633-48.482 45.527z" fill="#738394"/></g></g><g><ellipse cx="316.491" cy="365.585" fill="#67c7a5" rx="102.509" ry="102.415"/><path d="m367.85 353.585h-39.358v-38.68c0-6.627-5.373-12-12-12s-12 5.373-12 12v38.68h-39.358c-6.627 0-12 5.373-12 12s5.373 12 12 12h39.358v38.68c0 6.627 5.373 12 12 12s12-5.373 12-12v-38.68h39.358c6.627 0 12-5.373 12-12s-5.373-12-12-12z" fill="#fff"/></g></g></svg>