<svg id="Capa_1" enable-background="new 0 0 512 512" height="512" viewBox="0 0 512 512" width="512" xmlns="http://www.w3.org/2000/svg"><g><path d="m278.162 16.917c-7.199-1.257-14.603-1.917-22.162-1.917-35.34 0-67.34 14.33-90.51 37.49-23.16 23.17-37.49 55.17-37.49 90.51v19.12h150.162z" fill="#656489"/><path d="m384 143v19.12h-128v-147.12c70.69 0 128 57.31 128 128z" fill="#3d3a66"/><path d="m278.162 16.917-22.162-16.917c-78.85 0-143 64.15-143 143v19.12h30v-19.12c0-62.31 50.69-113 113-113z" fill="#3b9dff"/><path d="m399 143v19.12h-30v-19.12c0-62.31-50.69-113-113-113v-30c78.85 0 143 64.15 143 143z" fill="#656de0"/><path d="m280.768 366.14h-133.328l-77.65 23.67c-21.66 6.6-38.67 23.45-45.47 45.04l-24.32 77.15h91.44l15-15 15 15h134.56z" fill="#f9f9f9"/><path d="m512 512h-91.44l-15-15-15 15h-134.56v-145.86h108.56l77.65 23.67c21.65 6.6 38.66 23.44 45.47 45.03 10.34 32.8 24.32 77.16 24.32 77.16z" fill="#e7e3fa"/><path d="m280.768 365.713-24.768 10.787-58.69-25.56-49.87 15.2 41.29 78.59 67.27-33.63z" fill="#3b9dff"/><path d="m364.56 366.14-41.29 78.59-67.27-33.63v-34.6l58.69-25.56z" fill="#656de0"/><path d="m280.768 366.14-24.768-59.4-48.58-.01-10.11 44.21 58.69 60.16z" fill="#ffc9a0"/><path d="m314.69 350.94-58.69 60.16v-104.36l48.59.02z" fill="#ffa787"/><path d="m390.556 444.731h30v67.269h-30z" fill="#d3cdf0"/><path d="m91.444 444.731h30v67.269h-30z" fill="#e7e3fa"/><path d="m159.947 147.122h-31.973c-17.658 0-31.973 14.315-31.973 31.973v17.213c0 17.658 14.315 31.973 31.973 31.973h44.198z" fill="#f8c700"/><path d="m352.027 147.122h31.973c17.658 0 31.973 14.315 31.973 31.973v17.213c0 17.658-14.315 31.973-31.973 31.973h-44.589z" fill="#faaa00"/><path d="m278.162 207.345-22.162-101.905c-17.18-.12-37.39-1.47-59.75-5.19l-36.3 46.87.05 81.16c0 4.31.28 8.56.84 12.72.7 5.32 13.94 15.52 13.94 15.52s-7.07 9.86-4.77 14.48c16.37 32.29 48.8 53.26 85.99 53.31h.03c-.03 0 22.132-116.965 22.132-116.965z" fill="#ffe3bb"/><path d="m352.05 147.12v81.16c0 53.04-42.99 96.03-96.02 96.03h-.03v-218.87c36.88.25 59.75-5.19 59.75-5.19z" fill="#ffc9a0"/><path d="m239.93 241v30h-69.92c-4.61-9.25-7.77-19.35-9.17-30z" fill="#656489"/></g></svg>