<svg id="Flat" height="512" viewBox="0 0 512 512" width="512" xmlns="http://www.w3.org/2000/svg"><path d="m224 384h192v64h-192z" fill="#3dc285"/><path d="m224 408h160v16h-160z" fill="#35a872"/><path d="m208 224h208v32h-208z" fill="#248256"/><path d="m56 120a8 8 0 0 0 -8 8v208a8 8 0 0 0 16 0v-208a8 8 0 0 0 -8-8z" fill="#4f5659"/><circle cx="56" cy="280" fill="#2d85cc" r="24"/><path d="m112 192-88-80 232-48 232 48-88 80z" fill="#414649"/><path d="m112 193.6s72 20.8 144 20.8 144-20.8 144-20.8v-41.6h-288z" fill="#414649"/><path d="m400 224h-288v-72s72-24 144-24 144 24 144 24z" fill="#2d85cc"/><path d="m112 224v-32s72-24 144-24 144 24 144 24v32z" fill="#4f5659"/><path d="m224 256h192v64h-192z" fill="#3dc285"/><path d="m232 280h152v16h-152z" fill="#35a872"/><path d="m288 256h48v64h-48z" fill="#e9eef2"/><path d="m168 320h240v64h-240z" fill="#248256"/><path d="m168 344h240v16h-240z" fill="#2e9163"/><path d="m288 320h48v64h-48z" fill="#c3c6c7"/><path d="m448 448h-64v-168-128h64v128z" fill="#e9eef2"/><ellipse cx="416" cy="152" fill="#c3c6c7" rx="32" ry="24"/><path d="m384 272h64v32h-64z" fill="#ffb632"/><circle cx="168" cy="280" fill="#ffb632" r="72"/><path d="m184 272h-8v-16h16a8 8 0 0 0 0-16h-16a8 8 0 0 0 -16 0h-8a24 24 0 0 0 0 48h8v16h-16a8 8 0 0 0 0 16h16a8 8 0 0 0 16 0h8a24 24 0 0 0 0-48zm-32 0a8 8 0 0 1 0-16h8v16zm32 32h-8v-16h8a8 8 0 0 1 0 16z" fill="#ff8e26"/><rect fill="#e09f2c" height="32" rx="16" width="144" x="96" y="416"/><rect fill="#eba72e" height="32" rx="16" width="144" x="96" y="384"/><rect fill="#ffb632" height="32" rx="16" width="144" x="96" y="352"/><path d="m288 384h48v64h-48z" fill="#e9eef2"/><path d="m288 224h48v32h-48z" fill="#c3c6c7"/></svg>