<svg id="Layer_1" enable-background="new 0 0 64 64" height="512" viewBox="0 0 64 64" width="512" xmlns="http://www.w3.org/2000/svg"><path d="m56 37.915c-.552 0-1-.443-1-.995v-.01c0-.552.448-1 1-1s1 .448 1 1-.448 1.005-1 1.005z"/><path d="m57 62c0 1.1-.9 2-2 2h-46c-1.1 0-2-.9-2-2v-60c0-1.1.9-2 2-2h39l1 1v7h7l1 1z" fill="#f0e7dc"/><path d="m57 9h-7c-1.1 0-2-.9-2-2v-7z" fill="#c8ad90"/><circle cx="51" cy="26" fill="#c8ad90" r="13"/><g fill="#57555c"><path d="m32 10h-14c-.552 0-1-.448-1-1s.448-1 1-1h14c.552 0 1 .448 1 1s-.448 1-1 1z"/><path d="m32 14h-18c-.552 0-1-.448-1-1s.448-1 1-1h18c.552 0 1 .448 1 1s-.448 1-1 1z"/><path d="m32 18h-18c-.552 0-1-.448-1-1s.448-1 1-1h18c.552 0 1 .448 1 1s-.448 1-1 1z"/><path d="m22 22h-8c-.552 0-1-.448-1-1s.448-1 1-1h8c.552 0 1 .448 1 1s-.448 1-1 1z"/><path d="m49 45h-6c-.552 0-1-.448-1-1s.448-1 1-1h6c.552 0 1 .448 1 1s-.448 1-1 1z"/><path d="m49 49h-10c-.552 0-1-.448-1-1s.448-1 1-1h10c.552 0 1 .448 1 1s-.448 1-1 1z"/><path d="m49 53h-10c-.552 0-1-.448-1-1s.448-1 1-1h10c.552 0 1 .448 1 1s-.448 1-1 1z"/><path d="m43 57h-4c-.552 0-1-.448-1-1s.448-1 1-1h4c.552 0 1 .448 1 1s-.448 1-1 1z"/><path d="m32 28h-14c-.552 0-1-.448-1-1s.448-1 1-1h14c.552 0 1 .448 1 1s-.448 1-1 1z"/><path d="m22 32h-8c-.552 0-1-.448-1-1s.448-1 1-1h8c.552 0 1 .448 1 1s-.448 1-1 1z"/><circle cx="26" cy="21" r="1"/><circle cx="26" cy="31" r="1"/><circle cx="47" cy="56" r="1"/></g><path d="m51 14v12h-12c0-6.63 5.37-12 12-12z" fill="#ffb74f"/><path d="m59.49 34.49c-2.17 2.17-5.17 3.51-8.49 3.51s-6.32-1.34-8.49-3.51l8.49-8.49z" fill="#84caff"/><path d="m63 26c0 3.32-1.34 6.32-3.51 8.49l-8.49-8.49v-12c6.63 0 12 5.37 12 12z" fill="#00a6ff"/><path d="m51 26-8.49 8.49c-2.17-2.17-3.51-5.17-3.51-8.49z" fill="#ff9a00"/><path d="m5 57v-10c0-.551.449-1 1-1h4c.551 0 1 .449 1 1v10z" fill="#ffb74f"/><path d="m11 57v-14c0-.551.449-1 1-1h4c.551 0 1 .449 1 1v14z" fill="#ff9a00"/><path d="m17 57v-12c0-.551.449-1 1-1h4c.551 0 1 .449 1 1v12z" fill="#84caff"/><path d="m23 57v-19c0-.551.449-1 1-1h4c.551 0 1 .449 1 1v19z" fill="#00a6ff"/><path d="m33 58h-32c-.552 0-1-.448-1-1s.448-1 1-1h32c.552 0 1 .448 1 1s-.448 1-1 1z" fill="#c8ad90"/></svg>