<svg height="512" viewBox="0 0 64 64" width="512" xmlns="http://www.w3.org/2000/svg"><g id="Icons"><g><path d="m58 54v-4h-2v4c-.595.346-1 .984-1 1.723 0 1.105.895 2 2 2s2-.895 2-2c0-.739-.405-1.377-1-1.723z" fill="#fa6450"/></g><g><path d="m56 60h2v-1.277c0-.552-.448-1-1-1-.552 0-1 .448-1 1z" fill="#fa6450"/></g><g><g><path d="m44 8h-22.841c.538 1.226.841 2.578.841 4 0 3.262-1.577 6.154-4 7.981v12.848l-6-6v29.171h18v-2.938l-6-1.5v-5.123l18-4.5 10 2.5v-28.439z" fill="#f0f0f0"/></g><g><path d="m52 16h-8v-8z" fill="#d2d2d2"/></g><g><path d="m20 30h24v2h-24z" fill="#d2d2d2"/></g><g><path d="m20 34h24v2h-24z" fill="#d2d2d2"/></g><g><path d="m20 38h24v2h-24z" fill="#d2d2d2"/></g><g><path d="m20 42v2h13.754l8-2z" fill="#d2d2d2"/></g><g><path d="m20 46v2h4v-1.562l1.754-.438z" fill="#d2d2d2"/></g><g><path d="m32 48h20v12h-20z" fill="#505050"/></g><g><path d="m32 48h4v12h-4z" fill="#3c3c3c"/></g><g><path d="m26 48v2l16 4 16-4v-2z" fill="#3c3c3c"/></g><g><path d="m42 44-16 4 16 4 16-4z" fill="#505050"/></g><g><path d="m8 16v12l4-4 4 4v-12z" fill="#fab400"/></g><g><path d="m10 16h-2v12l2-2z" fill="#dc9600"/></g><g><path d="m12 26.829v29.171h4v-25.171z" fill="#d2d2d2"/></g><g><circle cx="12" cy="12" fill="#fa6450" r="8"/></g><g><path d="m6 12c0-4.079 3.055-7.438 7-7.931-.328-.041-.661-.069-1-.069-4.418 0-8 3.582-8 8s3.582 8 8 8c.339 0 .672-.028 1-.069-3.945-.493-7-3.852-7-7.931z" fill="#dc4632"/></g><g><path d="m12 14.633-2.472 1.367.472-2.894-2-2.05 2.764-.423 1.236-2.633 1.236 2.633 2.764.423-2 2.05.472 2.894z" fill="#f0f0f0"/></g><g><path d="m24 16v10h2v-4h4v4h2v-10zm6 4h-4v-2h4z" fill="#fa6450"/></g><g><path d="m38 22v-2h-2v2h-2v2h2v2h2v-2h2v-2z" fill="#fa6450"/></g></g></g></svg>