<svg id="svg8" height="512" viewBox="0 0 16.933333 16.933333" width="512" xmlns="http://www.w3.org/2000/svg" xmlns:svg="http://www.w3.org/2000/svg"><g id="layer2"><path id="path3369" d="m2.1167885 15.731127v.407393c-.0005576.146136.1174346.265062.2635605.265646h12.172362c.146126-.000585.264118-.119511.26356-.265646v-.407393c0-2.172181-1.628523-3.954306-3.704834-4.082876-.0059-.000195-.01172-.000195-.01757 0h-5.2541569c-.00586-.000195-.011716-.000195-.017571 0-2.0763116.12857-3.7053501 1.910695-3.7053501 4.082876z" fill="#5299d3" font-variant-ligatures="normal" font-variant-position="normal" font-variant-caps="normal" font-variant-numeric="normal" font-variant-alternates="normal" font-feature-settings="normal" text-indent="0" text-align="start" text-decoration-line="none" text-decoration-style="solid" text-decoration-color="#000000" text-transform="none" text-orientation="mixed" white-space="normal" shape-padding="0" isolation="auto" mix-blend-mode="normal" solid-color="#000000" solid-opacity="1" vector-effect="none" paint-order="stroke fill markers"/><path id="path3374" d="m7.144593 9.9215566c-.1463272-.0008438-.2655607.1172404-.2661444.2635784v2.500818c.0005837.146338.1198172.264422.2661444.263578h2.6443906c.1461259.000557.2650434-.117443.2656274-.263578 0-.780477 0-1.574173 0-2.500818-.000584-.146135-.1195015-.2641359-.2656274-.2635784z" fill="#fca" font-variant-ligatures="normal" font-variant-position="normal" font-variant-caps="normal" font-variant-numeric="normal" font-variant-alternates="normal" font-feature-settings="normal" text-indent="0" text-align="start" text-decoration-line="none" text-decoration-style="solid" text-decoration-color="#000000" text-transform="none" text-orientation="mixed" white-space="normal" shape-padding="0" isolation="auto" mix-blend-mode="normal" solid-color="#000000" solid-opacity="1" vector-effect="none"/><path id="path3455" d="m7.1447842 9.9217522a.26462055.26463815 0 0 0 -.2661335.2635318v.764243c.446201.323905.9939138.517245 1.5880165.517245.5941025 0 1.1417172-.19334 1.5880158-.517245v-.764243a.26462055.26463815 0 0 0 -.265616-.2635318z" fill="#ffb889" font-variant-ligatures="normal" font-variant-position="normal" font-variant-caps="normal" font-variant-numeric="normal" font-variant-alternates="normal" font-feature-settings="normal" text-indent="0" text-align="start" text-decoration-line="none" text-decoration-style="solid" text-decoration-color="#000000" text-transform="none" text-orientation="mixed" white-space="normal" shape-padding="0" isolation="auto" mix-blend-mode="normal" solid-color="#000000" solid-opacity="1" vector-effect="none"/><path id="path3481" d="m5.8223844 11.648144c-2.0763121.128571-3.7057164 1.911013-3.7057164 4.083194v.40723c-.0005318.146113.1174467.265008.2635498.265598h.5291667c-.1461032-.00059-.2640813-.119485-.2635499-.265598v-.40723c0-2.172181 1.6294043-3.954623 3.7057164-4.083194h-.5115964c-.00586-.000194-.011716-.000194-.01757 0z" fill="#3385c8" font-variant-ligatures="normal" font-variant-position="normal" font-variant-caps="normal" font-variant-numeric="normal" font-variant-alternates="normal" font-feature-settings="normal" text-indent="0" text-align="start" text-decoration-line="none" text-decoration-style="solid" text-decoration-color="#000000" text-transform="none" text-orientation="mixed" white-space="normal" shape-padding="0" isolation="auto" mix-blend-mode="normal" solid-color="#000000" solid-opacity="1" vector-effect="none" paint-order="stroke fill markers"/><path id="path3376" d="m6.427295 10.925728-.7948161.792806c-.1026024.103219-.1026024.269925 0 .373144l1.8537092 1.851766c.1032124.102609.2699066.102609.373119 0l.6072228-.605713.6077395.605713c.1032124.102609.2699066.102609.373119 0l1.8516416-1.851766c.102602-.103219.102602-.269925 0-.373144l-.793266-.792801c-.05054-.05084-.119536-.07899-.19121-.07803-.06917.000963-.135206.02897-.183976.07803l-1.6640481 1.66416-1.6661159-1.66416c-.050034-.05032-.118183-.07844-.1891436-.07804-.069166.000966-.1352054.02898-.1839754.07803z" fill="#a0c7e7" font-variant-ligatures="normal" font-variant-position="normal" font-variant-caps="normal" font-variant-numeric="normal" font-variant-alternates="normal" font-feature-settings="normal" text-indent="0" text-align="start" text-decoration-line="none" text-decoration-style="solid" text-decoration-color="#000000" text-transform="none" text-orientation="mixed" white-space="normal" shape-padding="0" isolation="auto" mix-blend-mode="normal" solid-color="#000000" solid-opacity="1" vector-effect="none"/><path id="path3378" d="m8.3337167.56209445-6.8789302 3.66124985c-.181744.096799-.1740893.3401593.013436.4271614l3.9942342 1.8310999.1183439-.2183272.00103.0004859h5.7683604l.118344.2178527 3.9963-1.8310998c.187648-.086807.195596-.3301813.01395-.4271615l-6.8794433-3.66124983c-.038225-.0203766-.077201-.0339375-.1326748-.0328816-.055474.001056-.098367.0143925-.1329502.0328702z" fill="#5299d3" font-variant-ligatures="normal" font-variant-position="normal" font-variant-caps="normal" font-variant-numeric="normal" font-variant-alternates="normal" font-feature-settings="normal" text-indent="0" text-align="start" text-decoration-line="none" text-decoration-style="solid" text-decoration-color="#000000" text-transform="none" text-orientation="mixed" white-space="normal" shape-padding="0" isolation="auto" mix-blend-mode="normal" solid-color="#000000" solid-opacity="1" vector-effect="none"/><path id="path3382" d="m5.8593478 7.0873172c-.551993.0000005-.9865431.478172-.9865431 1.0393243.0000005.5611522.4345503 1.0408747.9865431 1.0408749.076873-.0000005.152485-.01296.2268688-.032043-.0000439-.002-.00103-.00368-.00103-.00569v-2.0140412c-.0739242-.0183507-.1497125-.0284253-.2258388-.028425z" fill="#ffb889" font-variant-ligatures="normal" font-variant-position="normal" font-variant-caps="normal" font-variant-numeric="normal" font-variant-alternates="normal" font-feature-settings="normal" text-indent="0" text-align="start" text-decoration-line="none" text-decoration-style="solid" text-decoration-color="#000000" text-transform="none" text-orientation="mixed" white-space="normal" shape-padding="0" isolation="auto" mix-blend-mode="normal" solid-color="#000000" solid-opacity="1" vector-effect="none"/><path id="path3384" d="m12.061288 8.1266415c-.000001.5611522-.43455 1.0408747-.986543 1.0408749-.07687-.0000005-.152485-.01296-.226869-.032043.000044-.002.001-.00368.001-.00568v-2.0140511c.07392-.018351.149709-.028425.225852-.028425.55201.0000005.98656.4781721.98656 1.0393242z" fill="#fca" font-variant-ligatures="normal" font-variant-position="normal" font-variant-caps="normal" font-variant-numeric="normal" font-variant-alternates="normal" font-feature-settings="normal" text-indent="0" text-align="start" text-decoration-line="none" text-decoration-style="solid" text-decoration-color="#000000" text-transform="none" text-orientation="mixed" white-space="normal" shape-padding="0" isolation="auto" mix-blend-mode="normal" solid-color="#000000" solid-opacity="1" vector-effect="none"/><path id="path3386" d="m8.4665299 4.461873c-.8224233 0-1.5646076.073845-2.1208871.2051775-.2781396.065666-.5095981.1426815-.6935259.2480734-.1818506.1042014-.3536792.2639357-.3576153.5023486-.0154179.077476-.1973782 1.0383649.5431412 1.7773431l.078035.07804h5.1017042l.07648-.07804c.740526-.7389785.560115-1.6998671.544696-1.7773431-.003937-.2384126-.175248-.3981472-.357099-.5023486-.183927-.1053919-.415386-.1824074-.693526-.2480734-.55628-.1313326-1.2989791-.2051775-2.1214031-.2051775z" fill="#356287" font-variant-ligatures="normal" font-variant-position="normal" font-variant-caps="normal" font-variant-numeric="normal" font-variant-alternates="normal" font-feature-settings="normal" text-indent="0" text-align="start" text-decoration-line="none" text-decoration-style="solid" text-decoration-color="#000000" text-transform="none" text-orientation="mixed" white-space="normal" shape-padding="0" isolation="auto" mix-blend-mode="normal" solid-color="#000000" solid-opacity="1" vector-effect="none"/><path id="path3446" d="m6.3458667 4.6671336c-.2781397.065666-.5095699.142638-.6934977.24803-.1818505.1042014-.3541815.2638478-.3581174.5022606-.0154173.0774761-.1968836 1.0385702.5436358 1.7775482l.078031.078026h.5291671l-.0780315-.078026c-.7405194-.738978-.5590539-1.7000721-.5436358-1.7775482.003937-.2384128.1762669-.3980592.3581174-.5022606.1839278-.105392.415358-.1823641.6934977-.24803.4950039-.1168659 1.1412568-.1851576 1.8562172-.1994574-.088589-.00177-.1739129-.00568-.2645833-.00568-.8224233-.0000006-1.564521.073808-2.1208005.2051409z" fill="#2c5170" font-variant-ligatures="normal" font-variant-position="normal" font-variant-caps="normal" font-variant-numeric="normal" font-variant-alternates="normal" font-feature-settings="normal" text-indent="0" text-align="start" text-decoration-line="none" text-decoration-style="solid" text-decoration-color="#000000" text-transform="none" text-orientation="mixed" white-space="normal" shape-padding="0" isolation="auto" mix-blend-mode="normal" solid-color="#000000" solid-opacity="1" vector-effect="none"/><path id="path3390" d="m7.8122797 5.3156593a.26462058.26463818 0 0 0 -.2676949.2620274c-.0062735.593677-.4832644 1.0682671-1.075947 1.0682663h-.4434017a.26462058.26463818 0 0 0 -.2635606.2635782v1.3282265c0 1.4918806 1.2107794 2.6998663 2.7048544 2.6998663 1.4940745 0 2.7053711-1.2079857 2.7053711-2.6998663v-1.3282265a.26462058.26463818 0 0 0 -.263561-.2635782h-1.5550066c-.643791.0000003-1.185761-.4699363-1.2831779-1.1054772a.26462058.26463818 0 0 0 -.2578758-.2248165z" fill="#fca" font-variant-ligatures="normal" font-variant-position="normal" font-variant-caps="normal" font-variant-numeric="normal" font-variant-alternates="normal" font-feature-settings="normal" text-indent="0" text-align="start" text-decoration-line="none" text-decoration-style="solid" text-decoration-color="#000000" text-transform="none" text-orientation="mixed" white-space="normal" shape-padding="0" isolation="auto" mix-blend-mode="normal" solid-color="#000000" solid-opacity="1" vector-effect="none"/><path id="path3394" d="m3.4392422 3.1671033-.529705.2819335v3.6942628h.529705z" fill="#eee" font-variant-ligatures="normal" font-variant-position="normal" font-variant-caps="normal" font-variant-numeric="normal" font-variant-alternates="normal" font-feature-settings="normal" text-indent="0" text-align="start" text-decoration-line="none" text-decoration-style="solid" text-decoration-color="#000000" text-transform="none" text-orientation="mixed" white-space="normal" shape-padding="0" isolation="auto" mix-blend-mode="normal" solid-color="#000000" solid-opacity="1" vector-effect="none"/><path id="path3396" d="m2.9114623 6.614169c-.1461257-.0005574-.2650432.1174426-.2656276.2635778v2.38907c-.0005604.1469434.1186939.2662058.2656276.2656455h.5281223c.1461257-.0005844.2641179-.11951.2635605-.2656455v-2.38907c-.0005811-.1453287-.1182415-.2629969-.2635605-.2635778z" fill="#ffca28" font-variant-ligatures="normal" font-variant-position="normal" font-variant-caps="normal" font-variant-numeric="normal" font-variant-alternates="normal" font-feature-settings="normal" text-indent="0" text-align="start" text-decoration-line="none" text-decoration-style="solid" text-decoration-color="#000000" text-transform="none" text-orientation="mixed" white-space="normal" shape-padding="0" isolation="auto" mix-blend-mode="normal" solid-color="#000000" solid-opacity="1" vector-effect="none"/><path id="path3404" d="m8.4665299 2.910897c-.8224233 0-1.5646703.074949-2.1193368.2015597-.2773329.0633052-.5068982.1373711-.6893914.2361867-.0912466.0494077-.171847.1051675-.2403054.1819205-.0684576.0767528-.1266122.1868251-.1266122.3106086v1.5489088c.0002132.00852.0032.015586.00414.023772-.0000313.0013-.0005028.00233-.0005292.00362-.00715.035915-.049911.2650928-.020154.570569.2005929-.1964267.2995273-.3014792.4728539-.4222438.1454786-.1013616.3603856-.2394334.8268565-.3628075.3204677-.0847585.7274789-.1538743 1.201526-.1901896.2220226-.012677.451034-.021191.690942-.021191s.4689195.00851.6909419.021191c.4740471.036315.8810578.1054311 1.2015258.1901896.466471.1233741.681377.2614459.826856.3628075.173326.1207646.272226.2258141.472859.4222417.02975-.3054762-.01305-.534654-.02015-.570569-.000026-.0013-.000477-.00233-.000529-.00362.000899-.00819.0039-.015252.0041-.023772v-1.5489067c0-.1237835-.05815-.2338553-.126612-.3106086-.068427-.076753-.149031-.1325133-.240275-.1819205-.182471-.0988156-.412037-.172882-.68937-.2361867-.554667-.1266108-1.2969129-.2015597-2.1193361-.2015597z" fill="#a0c7e7"/><path id="path3435" d="m2.9114514 6.614169c-.1461256-.0005574-.2650323.1173966-.2656168.2635319v2.3893556c-.0005609.1469433.1186831.2661591.2656168.2655987h.5281331c-.1464471-.0000153-.2651423-.1190086-.2645833-.2655987v-2.3893556c.0005829-.1457818.1189432-.263516.2645833-.2635319z" fill="#ecb200" font-variant-ligatures="normal" font-variant-position="normal" font-variant-caps="normal" font-variant-numeric="normal" font-variant-alternates="normal" font-feature-settings="normal" text-indent="0" text-align="start" text-decoration-line="none" text-decoration-style="solid" text-decoration-color="#000000" text-transform="none" text-orientation="mixed" white-space="normal" shape-padding="0" isolation="auto" mix-blend-mode="normal" solid-color="#000000" solid-opacity="1" vector-effect="none"/><path id="path3440" d="m5.6580536 3.3484409c-.0912466.0494078-.1723538.1051356-.2408123.1818886-.0684575.0767528-.1266071.1872874-.1266071.3110709v1.5486373c.0002132.00852.00319.015583.00414.023769-.0000315.0013-.0005027.00233-.0005291.00362-.00715.035915-.049911.2649928-.020153.5704689.2005931-.1964267.2995126-.3014028.4728392-.4221676.018219-.012694.041773-.027593.062528-.041338.00543-.040063.01188-.096549.013951-.1069629.0000262-.0013.0004762-.00233.0005291-.00362-.0009525-.00819-.00392-.01525-.00414-.023769v-1.5486377c0-.1237835.05815-.2343181.1266071-.3110709.068458-.076753.1495657-.1324808.2408123-.1818886.1824932-.098816.4120306-.17284.6893633-.2361452.493567-.1126641 1.1397159-.1843401 1.8546671-.1987817-.088579-.0018-.1739109-.00274-.2645827-.00274-.8224226-.0000004-1.564583.074914-2.1192496.2015226-.2773327.0633043-.5068701.1373286-.6893633.2361443z" fill="#74addc"/><path id="path3452" d="m6.025473 6.6462063c-.145297.000582-.2629437.1182252-.2635498.2635319v1.3279938c0 1.186566.7667362 2.191213 1.8319292 2.553675-.8989609-.494073-1.5084349-1.4480004-1.5084349-2.5454073v-1.4287562c.0002249-.061782.02054-.1218151.057878-.1710372z" fill="#ffb889" font-variant-ligatures="normal" font-variant-position="normal" font-variant-caps="normal" font-variant-numeric="normal" font-variant-alternates="normal" font-feature-settings="normal" text-indent="0" text-align="start" text-decoration-line="none" text-decoration-style="solid" text-decoration-color="#000000" text-transform="none" text-orientation="mixed" white-space="normal" shape-padding="0" isolation="auto" mix-blend-mode="normal" solid-color="#000000" solid-opacity="1" vector-effect="none"/><g fill="#3385c8"><path id="path3473" d="m4.7743866 14.817637c-.1595509-.007099-.2889899.127663-.2754359.286785v1.29699h.5270999v-1.29699c.012757-.149704-.1015614-.279976-.251664-.286785z" font-variant-ligatures="normal" font-variant-position="normal" font-variant-caps="normal" font-variant-numeric="normal" font-variant-alternates="normal" font-feature-settings="normal" text-indent="0" text-align="start" text-decoration-line="none" text-decoration-style="solid" text-decoration-color="#000000" text-transform="none" text-orientation="mixed" white-space="normal" shape-padding="0" isolation="auto" mix-blend-mode="normal" solid-color="#000000" solid-opacity="1" vector-effect="none"/><path id="path3477" d="m12.182719 14.817637c-.159551-.0071-.28899.127663-.275436.286785v1.29699h.5271v-1.29699c.01276-.149704-.101561-.279976-.251664-.286785z" font-variant-ligatures="normal" font-variant-position="normal" font-variant-caps="normal" font-variant-numeric="normal" font-variant-alternates="normal" font-feature-settings="normal" text-indent="0" text-align="start" text-decoration-line="none" text-decoration-style="solid" text-decoration-color="#000000" text-transform="none" text-orientation="mixed" white-space="normal" shape-padding="0" isolation="auto" mix-blend-mode="normal" solid-color="#000000" solid-opacity="1" vector-effect="none"/></g></g></svg>