<svg clip-rule="evenodd" fill-rule="evenodd" height="512" image-rendering="optimizeQuality" shape-rendering="geometricPrecision" text-rendering="geometricPrecision" viewBox="0 0 1707 1707" width="512" xmlns="http://www.w3.org/2000/svg"><g id="Layer_x0020_1"><path d="m1100 1706h-906c-74 0-135-60-135-134v-1238c0-74 61-134 135-134h906c74 0 134 60 134 134v1238c0 74-60 134-134 134z" fill="#ffc250"/><path d="m1100 1606c19 0 34-15 34-34v-1238c0-19-15-34-34-34-302 0-604 0-906 0-19 0-35 15-35 34v1238c0 19 16 34 35 34z" fill="#f5f5f5"/><path d="m955 369h-617c-9 0-18-5-23-13-4-9-4-19 1-27l128-213c5-8 13-13 23-13h53c13-59 65-103 127-103s114 44 126 103h54c9 0 18 5 23 13l126 210c4 5 6 10 6 17 0 14-12 26-27 26z" fill="#485360"/><path d="m955 369h-617c-9 0-18-5-23-13-4-9-4-19 1-27l6-12h649l5 9c4 5 6 10 6 17 0 14-12 26-27 26z" fill="#6b747e"/><path d="m647 196c-32 0-59-26-59-58s27-59 59-59 58 26 58 59c0 32-26 58-58 58z" fill="#fff"/><g fill="#c7c7c7"><path d="m1025 581h-757c-14 0-26-12-26-26 0-15 12-27 26-27h757c15 0 27 12 27 27 0 14-12 26-27 26z"/><path d="m1025 1388h-757c-14 0-26-12-26-27 0-14 12-26 26-26h757c15 0 27 12 27 26 0 15-12 27-27 27z"/><path d="m1025 985h-757c-14 0-26-12-26-27s12-27 26-27h757c15 0 27 12 27 27s-12 27-27 27z"/><path d="m729 706h-461c-14 0-26-12-26-27s12-26 26-26h461c15 0 27 11 27 26s-12 27-27 27z"/><path d="m729 1513h-461c-14 0-26-12-26-27s12-27 26-27h461c15 0 27 12 27 27s-12 27-27 27z"/><path d="m729 1109h-461c-14 0-26-12-26-26 0-15 12-27 26-27h461c15 0 27 12 27 27 0 14-12 26-27 26z"/></g><g id="_383207120"><path d="m948 949 368-637c7-12 23-17 36-9l213 123c13 7 17 23 10 36l-368 637z" fill="#ffb123"/><path d="m1400 712c-60-35-80-112-46-172 35-60 112-81 172-47h1c12 7 17 23 9 36-1 2-99 172-100 174-8 12-24 17-36 9z" fill="#ff901d"/><path d="m996 918c-12-7-17-23-9-36 1-2 99-172 100-174 7-12 24-17 36-9 60 35 80 112 46 172-35 60-112 81-172 47z" fill="#ff901d"/><path d="m1528 437-168-96-45-27s0-1 1-2l59-103c26-45 83-60 128-34l97 56c45 26 60 83 35 128l-60 103c0 1-1 1-1 2z" fill="#ff4c4c"/><path d="m946 1252c-9-5-14-15-13-25l15-278 259 150-233 152c-8 6-19 6-28 1z" fill="#fed9a8"/><path d="m946 1252c-9-5-14-15-13-25l6-118c25 5 50 15 73 28 24 14 44 30 61 49l-99 65c-8 6-19 6-28 1z" fill="#333"/></g></g></svg>