<svg id="Capa_1" enable-background="new 0 0 512 512" height="512" viewBox="0 0 512 512" width="512" xmlns="http://www.w3.org/2000/svg"><g><path d="m315.068 236.321-139.236 3.014-52.158 60.263-122.352 133.263c-1.875 2.042-1.74 5.218.303 7.093l63.131 57.962c2.042 1.875 5.218 1.74 7.093-.303l103.591-112.83 139.628-32.733z" fill="#ffcdbe"/><path d="m149.712 378.98-98.109 106.86 13.153 12.076c2.042 1.875 5.218 1.74 7.093-.303l103.591-112.83 139.628-32.734v-26.245l-153.864 45.984c-4.409 1.317-8.38 3.803-11.492 7.192z" fill="#ebae9d"/><path d="m171.524 29.816v361.134c0 9.419 7.635 17.054 17.054 17.054h262.736c9.419 0 17.054-7.635 17.054-17.054v-361.134c0-9.419-7.635-17.054-17.054-17.054h-262.736c-9.419 0-17.054 7.636-17.054 17.054z" fill="#77d1b3"/><path d="m451.313 12.762h-29.057c9.419 0 17.054 7.635 17.054 17.054v361.134c0 9.419-7.635 17.055-17.054 17.055h29.057c9.419 0 17.054-7.636 17.054-17.055v-361.134c.001-9.418-7.635-17.054-17.054-17.054z" fill="#61aab8"/><g fill="#e8eef8"><path d="m223.663 85.23v32.664c0 3.062 2.482 5.544 5.544 5.544h32.664c3.062 0 5.544-2.482 5.544-5.544v-32.664c0-3.062-2.482-5.544-5.544-5.544h-32.664c-3.062 0-5.544 2.482-5.544 5.544z"/><path d="m223.663 182.963v32.664c0 3.062 2.482 5.544 5.544 5.544h32.664c3.062 0 5.544-2.482 5.544-5.544v-32.664c0-3.062-2.482-5.544-5.544-5.544h-32.664c-3.062 0-5.544 2.482-5.544 5.544z"/><path d="m223.663 280.696v32.664c0 3.062 2.482 5.544 5.544 5.544h32.664c3.062 0 5.544-2.482 5.544-5.544v-32.664c0-3.062-2.482-5.544-5.544-5.544h-32.664c-3.062 0-5.544 2.482-5.544 5.544z"/><path d="m416.228 131.196h-90.32c-4.284 0-7.758-3.473-7.758-7.758s3.473-7.758 7.758-7.758h90.32c4.284 0 7.758 3.473 7.758 7.758s-3.474 7.758-7.758 7.758z"/><path d="m416.228 228.929h-90.32c-4.284 0-7.758-3.473-7.758-7.758s3.473-7.758 7.758-7.758h90.32c4.284 0 7.758 3.473 7.758 7.758s-3.474 7.758-7.758 7.758z"/></g><path d="m234.407 191.992-2.081-4.552c-2.512-5.495-9.172-7.687-14.456-4.758l-105.261 58.334c-10.21 5.658-16.545 16.412-16.545 28.085v65.683c0 7.249 4.122 13.868 10.627 17.066l25.517 12.543c7.04 3.461 15.482 2.243 21.258-3.066l18.09-16.628c18.455-16.964 21.905-44.799 8.15-65.755l-4.923-7.499c-1.794-2.734-.987-6.409 1.789-8.138l44.768-27.898c14.65-9.131 20.244-27.718 13.067-43.417z" fill="#ffcdbe"/><circle cx="412.591" cy="364.115" fill="#e175a5" r="99.409"/><path d="m412.591 264.705c-4.936 0-9.785.365-14.528 1.06 48.015 7.032 84.881 48.383 84.881 98.349s-36.866 91.317-84.881 98.349c4.743.695 9.593 1.06 14.528 1.06 54.902 0 99.409-44.507 99.409-99.409s-44.507-99.409-99.409-99.409z" fill="#ca59a6"/><g fill="#514898"><path d="m408.767 328.36c-2.052-8.453-9.56-14.356-18.259-14.356-8.698 0-16.206 5.903-18.259 14.355l-18.526 76.276c-1.011 4.164 1.544 8.359 5.708 9.37 4.163 1.011 8.358-1.544 9.369-5.707l6.756-27.816h29.905l6.756 27.816c.862 3.548 4.035 5.928 7.532 5.928.606 0 1.222-.072 1.837-.221 4.164-1.011 6.719-5.206 5.708-9.37zm-29.443 36.607 8.002-32.945c.358-1.473 1.666-2.502 3.182-2.502s2.824 1.028 3.182 2.502l8.002 32.945z"/><path d="m476.376 335.181h-13.419v-13.418c0-4.285-3.473-7.758-7.758-7.758s-7.758 3.473-7.758 7.758v13.418h-13.419c-4.284 0-7.758 3.473-7.758 7.757s3.473 7.758 7.758 7.758h13.419v13.418c0 4.285 3.473 7.757 7.758 7.757s7.758-3.473 7.758-7.757v-13.418h13.419c4.284 0 7.758-3.473 7.758-7.758s-3.473-7.757-7.758-7.757z"/></g></g></svg>