<svg clip-rule="evenodd" fill-rule="evenodd" stroke-linejoin="round" stroke-miterlimit="2" viewBox="0 0 510 510" xmlns="http://www.w3.org/2000/svg"><g id="Artboard111"><g><g><g><path d="m413.641 52.584c10.701 0 19.419 8.743 19.419 19.444v357.502c0 10.701-8.718 19.419-19.419 19.419h-299.219c-10.7 0-19.444-8.718-19.444-19.419v-357.502c0-10.701 8.744-19.444 19.444-19.444z" fill="#837683"/><path d="m413.641 52.584c10.701 0 19.419 8.743 19.419 19.444v357.502c0 10.701-8.718 19.419-19.419 19.419h-23.511v-396.365z" fill="#685e68"/><path d="m397.247 79.628h-266.455c-4.83 0-8.77 3.94-8.77 8.769v324.738c0 4.855 3.94 8.795 8.77 8.795h266.455c4.854 0 8.794-3.94 8.794-8.795v-324.738c0-4.829-3.94-8.769-8.794-8.769z" fill="#eceff1"/><path d="m397.247 79.628h-7.117v342.302h7.117c4.854 0 8.794-3.94 8.794-8.795v-324.738c0-4.829-3.94-8.769-8.794-8.769z" fill="#d1d1d6"/><path d="m197.996 43.814h33.933c3.482-14.488 16.522-25.265 32.103-25.265 15.556 0 28.62 10.777 32.103 25.265h33.907c4.855 0 8.794 3.94 8.794 8.77v32.967c0 4.829-3.939 8.769-8.794 8.769h-132.046c-4.829 0-8.769-3.94-8.769-8.769v-32.967c0-4.83 3.94-8.77 8.769-8.77z" fill="#e3a76f"/><path d="m264.032 54.465c4.804 0 8.744-3.915 8.744-8.719 0-4.829-3.94-8.744-8.744-8.744s-8.744 3.915-8.744 8.744c0 4.804 3.94 8.719 8.744 8.719z" fill="#eceff1"/><path d="m330.042 43.814c4.855 0 8.794 3.94 8.794 8.77v32.967c0 4.829-3.939 8.769-8.794 8.769h-132.046c-4.829 0-8.769-3.94-8.769-8.769h132.046c4.829 0 8.769-3.966 8.769-8.795z" fill="#c48958"/><g><path d="m170.853 133.07h48.573c3.508 0 6.355 2.872 6.355 6.354v48.573c0 3.508-2.847 6.355-6.355 6.355h-48.573c-3.508 0-6.355-2.847-6.355-6.355v-48.573c0-3.482 2.847-6.354 6.355-6.354z" fill="#8ac9fe"/><path d="m209.158 133.07h10.268c3.508 0 6.355 2.872 6.355 6.354v48.573c0 3.508-2.847 6.355-6.355 6.355h-10.268c3.482 0 6.354-2.847 6.354-6.355v-48.573c0-3.482-2.872-6.354-6.354-6.354z" fill="#60b7ff"/></g><g><path d="m170.853 231.443h48.573c3.508 0 6.355 2.873 6.355 6.355v48.599c0 3.482-2.847 6.329-6.355 6.329h-48.573c-3.508 0-6.355-2.847-6.355-6.329v-48.599c0-3.482 2.847-6.355 6.355-6.355z" fill="#ffe177"/><path d="m209.158 231.443h10.268c3.508 0 6.355 2.873 6.355 6.355v48.599c0 3.482-2.847 6.329-6.355 6.329h-10.268c3.482 0 6.354-2.847 6.354-6.329v-48.599c0-3.482-2.872-6.355-6.354-6.355z" fill="#ffd064"/></g><g><path d="m170.853 324.418h48.573c3.508 0 6.355 2.872 6.355 6.354v48.599c0 3.482-2.847 6.329-6.355 6.329h-48.573c-3.508 0-6.355-2.847-6.355-6.329v-48.599c0-3.482 2.847-6.354 6.355-6.354z" fill="#fe646f"/><path d="m209.158 324.418h10.268c3.508 0 6.355 2.872 6.355 6.354v48.599c0 3.482-2.847 6.329-6.355 6.329h-10.268c3.482 0 6.354-2.847 6.354-6.329v-48.599c0-3.482-2.872-6.354-6.354-6.354z" fill="#fd4755"/></g></g><path d="m269.421 157.808c-4.416 0-8-3.585-8-8s3.584-8 8-8h79.397c4.415 0 8 3.585 8 8s-3.585 8-8 8zm0 30.254c-4.416 0-8-3.585-8-8 0-4.416 3.584-8 8-8h39.698c4.416 0 8 3.584 8 8 0 4.415-3.584 8-8 8zm0 54.604c-4.416 0-8-3.585-8-8 0-4.416 3.584-8 8-8h79.397c4.415 0 8 3.584 8 8 0 4.415-3.585 8-8 8zm0 30.253c-4.416 0-8-3.585-8-8s3.584-8 8-8h39.698c4.416 0 8 3.585 8 8s-3.584 8-8 8zm0 73.789c-4.416 0-8-3.584-8-8 0-4.415 3.584-8 8-8h79.397c4.415 0 8 3.585 8 8 0 4.416-3.585 8-8 8zm0 30.254c-4.416 0-8-3.585-8-8 0-4.416 3.584-8 8-8h39.698c4.416 0 8 3.584 8 8 0 4.415-3.584 8-8 8zm-85.846-214.295c-3.119-3.124-3.116-8.194.009-11.313 3.124-3.12 8.194-3.116 11.314.008l10.942 10.959 34.075-30.931c3.269-2.968 8.333-2.723 11.3.546 2.968 3.269 2.723 8.333-.546 11.301l-39.723 36.058c-3.162 2.87-8.021 2.751-11.039-.271zm.005 94.455c-3.122-3.122-3.122-8.192 0-11.314s8.191-3.122 11.313 0l10.944 10.944 34.08-30.914c3.27-2.967 8.333-2.72 11.3.55s2.72 8.334-.55 11.301l-39.723 36.033c-3.161 2.867-8.015 2.749-11.032-.268zm-.005 94.421c-3.119-3.125-3.116-8.194.009-11.314 3.124-3.12 8.194-3.116 11.314.009 0 0 10.944 10.96 10.944 10.96l34.075-30.91c3.27-2.967 8.333-2.72 11.3.55 2.967 3.271 2.72 8.334-.55 11.301l-39.723 36.033c-3.163 2.869-8.02 2.749-11.037-.272z" fill="#a79ba7"/></g><g><path d="m145.651 312.353c-4.691-8.13-13.127-13.002-22.51-13.002-9.397 0-17.82 4.872-22.525 13.002l-80.883 140.104c-4.691 8.13-4.691 17.861 0 25.991 4.692 8.144 13.128 13.003 22.511 13.003h161.779c9.397 0 17.82-4.859 22.511-13.003 4.705-8.13 4.705-17.861 0-25.991z" fill="#ffe177"/><path d="m145.651 312.353c-4.691-8.13-13.127-13.002-22.51-13.002-1.88 0-3.703.195-5.471.571 7.127 1.503 13.28 5.916 17.039 12.431l80.897 140.104c4.691 8.13 4.691 17.861 0 25.991-4.706 8.144-13.128 13.003-22.525 13.003h10.942c9.397 0 17.82-4.859 22.511-13.003 4.705-8.13 4.705-17.861 0-25.991z" fill="#ffd064"/><path d="m123.141 450.829c6.835 0 12.39 5.54 12.39 12.389 0 6.836-5.555 12.39-12.39 12.39-6.85 0-12.39-5.554-12.39-12.39 0-6.849 5.54-12.389 12.39-12.389zm0-22.107c-5.207 0-9.481-4.121-9.662-9.328l-2.45-67.685c-.097-2.729.807-5.109 2.701-7.072 1.893-1.963 4.232-2.951 6.96-2.951h4.887c2.728 0 5.067.988 6.96 2.951 1.894 1.963 2.813 4.343 2.701 7.072l-2.436 67.685c-.195 5.193-4.455 9.328-9.661 9.328z" fill="#fe646f"/></g><g><path d="m323.538 344.858 133.33-133.33c7.231-7.23 19.024-7.23 26.245-.01l5.254 5.255c7.231 7.231 7.221 19.014-.01 26.244l-133.33 133.33-39.982 10.714c-.642.173-1.283 0-1.752-.469-.468-.468-.641-1.11-.468-1.751z" fill="#e3a76f"/><path d="m481.116 209.787c.693.529 1.365 1.1 1.997 1.731l5.254 5.255c7.231 7.231 7.221 19.014-.01 26.244l-133.33 133.33-39.982 10.714c-1.344.366-2.587-.876-2.22-2.22l2.454-9.217 30.776-8.249 133.33-133.33c6.599-6.599 7.18-16.997 1.731-24.258z" fill="#c48958"/><path d="m312.825 384.841 10.713-39.983 31.489 31.489-39.982 10.714c-1.344.366-2.587-.876-2.22-2.22z" fill="#837683"/><path d="m312.825 384.841 2.454-9.217 30.776-8.249 8.972 8.972-39.982 10.714c-.642.173-1.283 0-1.752-.469-.468-.468-.641-1.11-.468-1.751z" fill="#685e68"/><path d="m445.849 222.547 11.019-11.019c7.231-7.23 19.024-7.23 26.245-.01l5.254 5.255c7.231 7.231 7.221 19.014-.01 26.244l-11.019 11.02z" fill="#837683"/><path d="m481.116 209.787c.693.529 1.365 1.1 1.997 1.731l5.254 5.255c7.231 7.231 7.221 19.014-.01 26.244l-11.019 11.02-8.972-8.973 11.019-11.019c6.599-6.599 7.18-16.997 1.731-24.258z" fill="#685e68"/></g></g></g></svg>