<svg id="Layer_1" enable-background="new 0 0 68 68" height="512" viewBox="0 0 68 68" width="512" xmlns="http://www.w3.org/2000/svg"><g><g><g><path d="m53.0220337 9.5685921v52.254776c0 1.5390511-1.2519798 2.781971-2.781971 2.781971h-42.0820646c-1.5299931 0-2.7819705-1.2429199-2.7819705-2.781971v-52.254776c0-1.5395021 1.2519774-2.7819705 2.7819705-2.7819705h42.0820656c1.5299902 0 2.78197 1.2424683 2.78197 2.7819705z" fill="#cfcfff"/></g><g><path d="m49.6285477 6.1833277v52.259613c0 1.540081-1.2382622 2.7783432-2.778347 2.7783432h-42.0713649c-1.5403295-.0000009-2.7788358-1.2382631-2.7788358-2.7783441v-52.2596121c0-1.530252 1.2385063-2.788667 2.7788358-2.788667h42.0713654c1.5400843 0 2.7783465 1.258415 2.7783465 2.788667z" fill="#e9e9ff"/></g><g><g><path d="m15.7299976 7.4702225v1.0505066c0 .1341476-.1087484.2428951-.2428951.2428951h-9.1688194c-.1341467 0-.2428946-.1087475-.2428946-.2428951v-1.0505066c0-.1341467.108748-.2428946.2428946-.2428946h9.1688194c.1341467-.0000001.2428951.1087479.2428951.2428946z" fill="#fdc72e"/></g><g><path d="m19.1165504 11.2743435v1.0505066c0 .1341467-.1087475.2428942-.2428951.2428942h-12.5553722c-.1341467 0-.2428946-.1087475-.2428946-.2428942v-1.0505066c0-.1341476.108748-.2428951.2428946-.2428951h12.5553722c.1341477 0 .2428951.1087474.2428951.2428951z" fill="#ed524e"/></g></g><g><g><path d="m44.3861389 39.6642532v.6342926c0 .2651367-.2177467.4828873-.492363.4828873h-36.1590056c-.2746148 0-.4923649-.2177505-.4923649-.4828873v-.6342926c0-.2746162.2177501-.4923668.4923649-.4923668h36.1590042c.2746177 0 .4923644.2177506.4923644.4923668z" fill="#cfcfff"/></g><g><path d="m25.4497375 44.9587173v.6342926c0 .2651405-.2177505.4828873-.4923649.4828873h-17.2226023c-.2746148 0-.4923649-.2177467-.4923649-.4828873v-.6342926c0-.2746162.2177501-.4923668.4923649-.4923668h17.2226028c.2746139.0000001.4923644.2177506.4923644.4923668z" fill="#cfcfff"/></g><g><path d="m44.3861389 44.9587173v.6342926c0 .2651405-.2177467.4828873-.492363.4828873h-14.8555526c-.2746143 0-.4923649-.2177467-.4923649-.4828873v-.6342926c0-.2746162.2177505-.4923668.4923649-.4923668h14.8555527c.2746162.0000001.4923629.2177506.4923629.4923668z" fill="#cfcfff"/></g><g><path d="m27.9445553 50.2531815v.6342926c0 .2651405-.2177505.4828873-.4923649.4828873h-19.7174201c-.2746148 0-.4923649-.2177467-.4923649-.4828873v-.6342926c0-.2746162.2177501-.4923668.4923649-.4923668h19.7174206c.2746138 0 .4923644.2177505.4923644.4923668z" fill="#cfcfff"/></g><g><path d="m44.3861389 50.2531815v.6342926c0 .2651405-.2177467.4828873-.492363.4828873h-19.7174205c-.2746143 0-.4923649-.2177467-.4923649-.4828873v-.6342926c0-.2746162.2177505-.4923668.4923649-.4923668h19.7174206c.2746162 0 .4923629.2177505.4923629.4923668z" fill="#cfcfff"/></g><g><path d="m21.17449 55.5476456v.6342926c0 .2651405-.2177486.4828911-.4923649.4828911h-12.9473548c-.2746148 0-.4923649-.2177505-.4923649-.4828911v-.6342926c0-.2746162.2177501-.4923668.4923649-.4923668h12.9473553c.2746157 0 .4923644.2177505.4923644.4923668z" fill="#cfcfff"/></g><g><path d="m44.3861389 55.5476456v.6342926c0 .2651405-.2177467.4828911-.492363.4828911h-19.7174205c-.2746143 0-.4923649-.2177505-.4923649-.4828911v-.6342926c0-.2746162.2177505-.4923668.4923649-.4923668h19.7174206c.2746162 0 .4923629.2177505.4923629.4923668z" fill="#cfcfff"/></g></g><g><g><g><path d="m14.8481913 26.4043465v8.5036469c0 .256546-.2079706.4645195-.4645157.4645195h-4.3176155c-.2565451 0-.4645157-.2079735-.4645157-.4645195v-8.5036469c0-.2565441.2079706-.4645157.4645157-.4645157h4.3176155c.256545 0 .4645157.2079716.4645157.4645157z" fill="#ed524e"/></g><g><path d="m23.907795 21.5934296v13.3145638c0 .256546-.2079716.4645195-.4645157.4645195h-4.3176155c-.256546 0-.4645157-.2079735-.4645157-.4645195v-13.3145638c0-.256546.2079697-.4645157.4645157-.4645157h4.3176155c.2565441 0 .4645157.2079696.4645157.4645157z" fill="#70c1f9"/></g><g><path d="m32.9673996 16.503046v18.4049473c0 .256546-.2079735.4645195-.4645157.4645195h-4.3176174c-.2565441 0-.4645157-.2079735-.4645157-.4645195v-18.4049473c0-.256546.2079716-.4645176.4645157-.4645176h4.3176174c.2565422 0 .4645157.2079716.4645157.4645176z" fill="#fdc72e"/></g><g><path d="m42.0270004 10.7718649v24.1361275c0 .256546-.2079697.4645195-.4645157.4645195h-4.3176155c-.2565422 0-.4645157-.2079735-.4645157-.4645195v-24.1361275c0-.2565451.2079735-.4645166.4645157-.4645166h4.3176155c.2565461 0 .4645157.2079715.4645157.4645166z" fill="#7bd681"/></g></g></g></g><g opacity=".2"><g><path d="m7.2424054 3.3946607 15.3494258 57.8266223h15.4567871l-15.3589477-57.8266223z" fill="#fff"/></g><g><path d="m31.0546608 3.3946607h-4.3916016l15.3574829 57.8266223h4.3813477z" fill="#fff"/></g></g><g><g><g><g><g><path d="m65.6336823 49.5703354-3.2892075-.8697701c-.167881-.5496597-.3968773-1.0914955-.6640663-1.6027756l1.7171783-2.9309044c.1067657-.1907997.084034-.4270592-.0762062-.5872993l-2.2439232-2.2441101c-.1602402-.1602402-.4045143-.1982498-.5953102-.083847l-2.9381714 1.7171822-.2748337-.1375084c-.2593651-.1296844-.5265541-.2440872-.8012009-.3432121-.175518-.068943-.3435822-.1222305-.519104-.1907997l-.8623161-3.2819443c-.0611115-.2135277-.2519112-.35849-.4732666-.35849h-3.1824455c-.2213554 0-.4197922.1449623-.4732666.35849l-.0152779.0458374-.0914879.3588638-.1373215.5492897-.6182289 2.3279533c-.5571136.182972-1.0914955.4043274-1.6027756.6715202l-2.9305305-1.7171822c-.1907997-.1144028-.4350739-.0763931-.595314.083847l-1.4425354 1.4425354-.5112762.5112801-.2901077.2902946c-.1602402.1602402-.182972.3964996-.07621.5872993l1.5493011 2.6637154.007637.0152779.1526031.2519112c-.0152779.0305595-.0305595.0532913-.0381966.083847-.2517281.4885483-.4578018.9998245-.618042 1.5263824l-3.2893982.8623161c-.2137146.0536613-.3663177.2444572-.3663177.4658127v3.1746216c0 .2366333.1526031.4199791.3663177.4732666l3.2893982.8701401c.1676903.5492897.3890457 1.0911255.6638756 1.5949516l-1.7171783 2.9383583c-.1067619.1907959-.0840302.4348831.07621.5876694l2.2439194 2.2511902c.1602402.1527863.4045143.1907997.595314.0763931l2.9305305-1.7171783c.091671.0458374.1831589.0991249.2748299.1375084.2670059.1296844.5341988.2440872.8088417.3510399.1680641.0611115.343586.1218567.519104.175518l.8623161 3.2968483c.0534744.2139053.2519112.3588638.4732666.3588638h3.1824455c.2213554 0 .4121552-.1449585.4732666-.3588638l.8623161-3.2968483c.5571175-.175518 1.0914993-.3968735 1.5951385-.6640663l.007637.0078278.4121552.2440834.2517242.1449623 1.5798569.9159775.6867981.4043274c.0534744.0305595.1145897.0536613.175518.0685692.1375084.0156517.2824707-.0305595.3894196-.1218567.0152817-.0078278.0227318-.0152779.0303726-.0231056l1.9538116-1.9612656.2901115-.2899246c.1602402-.1527863.182972-.3968735.0762062-.5876694l-1.5569382-2.6558876-.1602402-.2824707c.0152779-.0305595.0305557-.0532913.0381966-.083847.2519112-.4810944.4654427-.9923706.6258698-1.5111046l3.2892075-.8701401c.2137149-.0532875.366318-.2366332.366318-.4732665v-3.1746216c0-.2213555-.1526031-.4121514-.3663177-.4658127z" fill="#70c1f9"/></g></g></g><g><circle cx="53.018" cy="51.626" fill="#4f5d99" r="6.356"/></g><g><circle cx="53.018" cy="51.626" fill="#fff" r="5.264"/></g></g></g><g><g><path d="m52.1734657 53.8640289c-.1210594 0-.2417374-.0461159-.3339729-.1383514l-1.8243408-1.8243446c-.1844711-.1844711-.1844711-.4834709 0-.667942s.4834671-.1844711.6679382 0l1.4903755 1.4903755 3.1875076-3.1873169c.1852417-.1846657.4842377-.1840897.667942 0 .1844711.1844711.1844711.4834671 0 .6679382l-3.5214806 3.5212898c-.0922354.0922356-.2132948.1383514-.333969.1383514z" fill="#ed524e"/></g></g></g></svg>