<svg id="Capa_1" enable-background="new 0 0 497 497" height="512" viewBox="0 0 497 497" width="512" xmlns="http://www.w3.org/2000/svg"><g><g><path d="m107.683 447.301v33.131c0 9.15 7.418 16.568 16.568 16.568h314.766c9.15 0 16.568-7.418 16.568-16.568v-414.165c0-9.15-7.417-16.567-16.568-16.567h-33.132z" fill="#d3e2eb"/><path d="m57.983 430.733c0 9.15 7.418 16.568 16.567 16.568h314.766c9.15 0 16.568-7.417 16.568-16.568v-414.166c0-9.15-7.417-16.567-16.568-16.567h-314.766c-9.15 0-16.567 7.418-16.567 16.567z" fill="#ecf0f9"/><path d="m389.316 0h-23c9.15 0 16.567 7.418 16.567 16.567v414.165c0 9.15-7.417 16.568-16.567 16.568h23c9.15 0 16.567-7.417 16.567-16.568v-414.165c0-9.149-7.417-16.567-16.567-16.567z" fill="#d8e4f0"/><path d="m439.016 49.7h-23c9.15 0 16.568 7.417 16.568 16.567v414.165c0 9.15-7.417 16.568-16.568 16.568h23c9.15 0 16.568-7.418 16.568-16.568v-414.165c-.001-9.15-7.418-16.567-16.568-16.567z" fill="#b0c4d8"/></g><g><path d="m157.383 82.834c-36.598 0-66.267 29.668-66.267 66.267 0 36.598 29.669 66.267 66.267 66.267s66.267-29.669 66.267-66.267c0-36.599-29.669-66.267-66.267-66.267zm0 82.833c-9.15 0-16.567-7.417-16.567-16.567 0-9.149 7.417-16.567 16.567-16.567s16.567 7.417 16.567 16.567c0 9.149-7.417 16.567-16.567 16.567z" fill="#90c962"/><g><path d="m315.05 115.967h-50.267c-4.418 0-8-3.582-8-8v-17.133c0-4.418 3.582-8 8-8h50.267c4.418 0 8 3.582 8 8v17.133c0 4.418-3.582 8-8 8z" fill="#4c9cd6"/><g><g><path d="m372.75 156.6h-115.967c-4.143 0-7.5-3.357-7.5-7.5s3.357-7.5 7.5-7.5h115.967c4.143 0 7.5 3.357 7.5 7.5 0 4.142-3.357 7.5-7.5 7.5z" fill="#595a66"/></g></g><g><g><path d="m372.75 189.733h-115.967c-4.143 0-7.5-3.357-7.5-7.5s3.357-7.5 7.5-7.5h115.967c4.143 0 7.5 3.357 7.5 7.5s-3.357 7.5-7.5 7.5z" fill="#595a66"/></g></g><g><g><path d="m323.05 222.866h-66.267c-4.143 0-7.5-3.357-7.5-7.5s3.357-7.5 7.5-7.5h66.267c4.143 0 7.5 3.357 7.5 7.5s-3.358 7.5-7.5 7.5z" fill="#595a66"/></g></g></g><g><path d="m149.383 314.767h-50.266c-4.418 0-8-3.582-8-8v-17.133c0-4.418 3.582-8 8-8h50.267c4.418 0 8 3.582 8 8v17.133c-.001 4.418-3.583 8-8.001 8z" fill="#4c9cd6"/><g><g><path d="m207.083 355.4h-115.967c-4.143 0-7.5-3.357-7.5-7.5s3.357-7.5 7.5-7.5h115.967c4.143 0 7.5 3.357 7.5 7.5s-3.357 7.5-7.5 7.5z" fill="#595a66"/></g></g><g><g><path d="m207.083 388.533h-115.967c-4.143 0-7.5-3.357-7.5-7.5s3.357-7.5 7.5-7.5h115.967c4.143 0 7.5 3.357 7.5 7.5s-3.357 7.5-7.5 7.5z" fill="#595a66"/></g></g><g><g><path d="m157.383 421.667h-66.267c-4.143 0-7.5-3.357-7.5-7.5s3.357-7.5 7.5-7.5h66.267c4.143 0 7.5 3.357 7.5 7.5s-3.358 7.5-7.5 7.5z" fill="#595a66"/></g></g></g><g><g><path d="m240.217 371.967c-1.919 0-3.839-.732-5.303-2.196-2.93-2.93-2.93-7.678-.001-10.606l33.133-33.135c2.009-2.008 4.981-2.708 7.676-1.811l45.303 15.102 46.422-46.423c2.93-2.928 7.678-2.928 10.607 0 2.929 2.93 2.929 7.678 0 10.607l-49.7 49.7c-2.009 2.009-4.981 2.709-7.676 1.811l-45.303-15.102-29.854 29.856c-1.465 1.464-3.385 2.197-5.304 2.197z" fill="#4c9cd6"/></g></g><g><path d="m356.183 421.667h-115.966c-4.143 0-7.5-3.357-7.5-7.5s3.357-7.5 7.5-7.5h115.966c5 0 9.067-4.067 9.067-9.067v-115.966c0-4.143 3.357-7.5 7.5-7.5s7.5 3.357 7.5 7.5v115.966c0 13.27-10.797 24.067-24.067 24.067z" fill="#595a66"/></g><path d="m157.383 82.834v49.7c9.15 0 16.567 7.417 16.567 16.567 0 4.575-1.854 8.716-4.852 11.714l35.143 35.143c11.992-11.992 19.409-28.558 19.409-46.857 0-36.599-29.669-66.267-66.267-66.267z" fill="#ffcb5b"/></g><path d="m99.683 66.267h-42.266c-8.837 0-16-7.163-16-16v-1.133c0-8.836 7.163-16 16-16h42.266c4.418 0 8 3.582 8 8v17.133c0 4.418-3.582 8-8 8z" fill="#ffcb5b"/><path d="m99.683 33.133h-23c4.418 0 8 3.582 8 8v17.133c0 4.418-3.582 8-8 8h23c4.418 0 8-3.582 8-8v-17.133c0-4.418-3.582-8-8-8z" fill="#ffb85b"/></g></svg>