<svg id="Capa_1" enable-background="new 0 0 512 512" height="512" viewBox="0 0 512 512" width="512" xmlns="http://www.w3.org/2000/svg"><g><path d="m272.5 45v21.5l7.5 9.5h24c4.418 0 8-3.582 8-8v-24c0-4.418-3.582-8-8-8h-24z" fill="#ff8086"/><path d="m256 36h24v40h-24z" fill="#e5646e"/><path d="m264 124h-16v-88c0-4.418 3.582-8 8-8 4.418 0 8 3.582 8 8z" fill="#ffc269"/><path d="m466.801 180h-421.602c-3.162 0-6.026 1.862-7.31 4.751l-22.778 51.249 20.389 6.5h443l18.389-6.5-22.777-51.249c-1.285-2.889-4.149-4.751-7.311-4.751z" fill="#ff8086"/><path d="m499 240.751-2.111-4.751h-481.778l-2.111 4.751c-2.352 5.29 1.521 11.249 7.31 11.249h3.69l5.25 7.5h452.417l6.333-7.5h3.69c5.789 0 9.662-5.959 7.31-11.249z" fill="#e5646e"/><path d="m488 476h-454.333v-216h94.333l128-116.333 128.001 116.333 103.999 8z" fill="#ffc269"/><path d="m208 380v80h96v-80c0-4.418-3.582-8-8-8h-32l-7.667 8.667-8.333-8.667h-32c-4.418 0-8 3.582-8 8z" fill="#c38c66"/><path d="m248 372h16v80h-16z" fill="#b57f5f"/><circle cx="256" cy="268" fill="#fff0af" r="48"/><circle cx="256" cy="268" fill="#fff" r="32"/><path d="m279.156 256.422c-1.984-3.953-6.781-5.539-10.734-3.578l-16 8-4.422 7.156v16c0 4.422 3.578 8 8 8s8-3.578 8-8v-11.055l11.578-5.789c3.953-1.976 5.555-6.781 3.578-10.734z" fill="#857e87"/><path d="m192 452v24h128v-24c0-4.418-3.582-8-8-8h-112c-4.418 0-8 3.582-8 8z" fill="#c8c5c9"/><path d="m384.001 252-128.001-128-128 128h-104v224h16v-192c0-8.837 7.163-16 16-16h79.993c6.367 0 12.473-2.529 16.975-7.031l103.032-103.028 103.031 103.027c4.502 4.502 10.608 7.031 16.975 7.031h111.994v-16h-103.999z" fill="#ffa95f"/><path d="m384 260c-2.047 0-4.094-.781-5.656-2.344l-122.344-122.343-122.344 122.343c-3.125 3.125-8.188 3.125-11.313 0s-3.125-8.188 0-11.313l128-128c3.125-3.125 8.188-3.125 11.313 0l128 128c3.125 3.125 3.125 8.188 0 11.313-1.562 1.563-3.609 2.344-5.656 2.344z" fill="#db4655"/><path d="m504 484h-496c-4.422 0-8-3.578-8-8s3.578-8 8-8h496c4.422 0 8 3.578 8 8s-3.578 8-8 8z" fill="#dad8db"/><path d="m72 412h88c4.418 0 8-3.582 8-8v-24c0-4.418-3.582-8-8-8h-40l-8.334 5.667-7.666-5.667h-32c-4.418 0-8 3.582-8 8v24c0 4.418 3.582 8 8 8z" fill="#edf4ff"/><path d="m72 388v-16h-8c-4.418 0-8 3.582-8 8v32c0 4.418 3.582 8 8 8h40l8-4.625 8 4.625h40c4.418 0 8-3.582 8-8v-8h-80c-8.837 0-16-7.163-16-16z" fill="#dbeaff"/><path d="m111.625 408.75-7.625-4.75v-32h16v32z" fill="#ffe09f"/><path d="m104 404h16v16h-16z" fill="#ffc269"/><circle cx="256" cy="268" fill="#4b3f4e" r="8"/><path d="m72 332h88c4.418 0 8-3.582 8-8v-24c0-4.418-3.582-8-8-8h-40l-8.334 5.667-7.666-5.667h-32c-4.418 0-8 3.582-8 8v24c0 4.418 3.582 8 8 8z" fill="#edf4ff"/><path d="m72 308v-16h-8c-4.418 0-8 3.582-8 8v32c0 4.418 3.582 8 8 8h40l8-4.625 8 4.625h40c4.418 0 8-3.582 8-8v-8h-80c-8.837 0-16-7.163-16-16z" fill="#dbeaff"/><path d="m111.625 328.75-7.625-4.75v-32h16v32z" fill="#ffe09f"/><path d="m104 324h16v16h-16z" fill="#ffc269"/><path d="m360 412h88c4.418 0 8-3.582 8-8v-24c0-4.418-3.582-8-8-8h-40l-8.334 5.667-7.666-5.667h-32c-4.418 0-8 3.582-8 8v24c0 4.418 3.582 8 8 8z" fill="#edf4ff"/><path d="m360 388v-16h-8c-4.418 0-8 3.582-8 8v32c0 4.418 3.582 8 8 8h40l8-4.625 8 4.625h40c4.418 0 8-3.582 8-8v-8h-80c-8.837 0-16-7.163-16-16z" fill="#dbeaff"/><path d="m399.625 408.75-7.625-4.75v-32h16v32z" fill="#ffe09f"/><path d="m392 404h16v16h-16z" fill="#ffc269"/><path d="m360 332h88c4.418 0 8-3.582 8-8v-24c0-4.418-3.582-8-8-8h-40l-8.334 5.667-7.666-5.667h-32c-4.418 0-8 3.582-8 8v24c0 4.418 3.582 8 8 8z" fill="#edf4ff"/><path d="m360 308v-16h-8c-4.418 0-8 3.582-8 8v32c0 4.418 3.582 8 8 8h40l8-4.625 8 4.625h40c4.418 0 8-3.582 8-8v-8h-80c-8.837 0-16-7.163-16-16z" fill="#dbeaff"/><path d="m399.625 328.75-7.625-4.75v-32h16v32z" fill="#ffe09f"/><path d="m392 324h16v16h-16z" fill="#ffc269"/></g></svg>