<svg id="Layer_1" height="512" viewBox="0 0 512 512" width="512" xmlns="http://www.w3.org/2000/svg" data-name="Layer 1"><path d="m0 56.248h374.149v451.264h-374.149z" fill="#006694" fill-rule="evenodd"/><path d="m47.709 4.488h284.065l90.084 90.084v361.18h-374.149z" fill="#eaf6ff" fill-rule="evenodd"/><path d="m331.774 4.488v90.084h90.084z" fill="#d3dde6" fill-rule="evenodd"/><path d="m99.468 57.006h97.079a4.091 4.091 0 0 1 4.08 4.08v49.428a4.092 4.092 0 0 1 -4.08 4.08h-97.079a4.092 4.092 0 0 1 -4.08-4.08v-49.428a4.091 4.091 0 0 1 4.08-4.08z" fill="#60b7ff" fill-rule="evenodd"/><path d="m231.577 93.231a7.192 7.192 0 0 1 10.172-10.171l12.24 12.24 34.273-34.273a7.2 7.2 0 0 1 10.172 10.2l-39.345 39.344a7.211 7.211 0 0 1 -10.171 0z" fill="#60b7ff"/><path d="m231.577 189.464a7.2 7.2 0 0 1 10.172-10.2l12.24 12.241 34.273-34.245a7.193 7.193 0 0 1 10.172 10.172l-39.345 39.344a7.211 7.211 0 0 1 -10.171 0z" fill="#3bb54a"/><path d="m231.577 285.668a7.192 7.192 0 1 1 10.172-10.168l12.24 12.241 34.273-34.273a7.192 7.192 0 1 1 10.172 10.171l-39.345 39.341a7.159 7.159 0 0 1 -10.171 0z" fill="#60b7ff"/><path d="m231.577 381.873a7.193 7.193 0 0 1 10.172-10.173l12.24 12.241 34.273-34.274a7.193 7.193 0 0 1 10.172 10.172l-39.345 39.373a7.211 7.211 0 0 1 -10.171 0z" fill="#3bb54a"/><path d="m421.858 381.96a90.157 90.157 0 1 0 -90.142-90.171 90.325 90.325 0 0 0 90.142 90.171z" fill="#e6404d" fill-rule="evenodd"/><path d="m436.138 266.433a7.184 7.184 0 1 1 0-14.368h10.084v-10.083a7.2 7.2 0 1 1 14.4 0v10.083h10.078a7.184 7.184 0 1 1 0 14.368h-10.081v10.084a7.2 7.2 0 1 1 -14.4 0v-10.084zm-12.648 49.982h-33.574l-10.142 27.716a7.2 7.2 0 0 1 -13.523-4.955l33.72-91.89a7.2 7.2 0 0 1 13.494 0l33.69 91.89a7.188 7.188 0 0 1 -13.494 4.955zm-28.3-14.4h23.024l-11.514-31.385z" fill="#eaf6ff"/><g fill-rule="evenodd"><path d="m99.468 153.239h97.079a4.067 4.067 0 0 1 4.08 4.051v49.457a4.086 4.086 0 0 1 -4.08 4.051h-97.079a4.086 4.086 0 0 1 -4.08-4.051v-49.457a4.067 4.067 0 0 1 4.08-4.051z" fill="#3bb54a"/><path d="m99.468 249.443h97.079a4.092 4.092 0 0 1 4.08 4.08v49.428a4.067 4.067 0 0 1 -4.08 4.051h-97.079a4.067 4.067 0 0 1 -4.08-4.051v-49.428a4.092 4.092 0 0 1 4.08-4.08z" fill="#60b7ff"/><path d="m99.468 345.646h97.079a4.093 4.093 0 0 1 4.08 4.081v49.428a4.092 4.092 0 0 1 -4.08 4.08h-97.079a4.092 4.092 0 0 1 -4.08-4.08v-49.428a4.093 4.093 0 0 1 4.08-4.081z" fill="#3bb54a"/><path d="m68.08 455.752v-399.504-51.76h-20.371v51.76 399.504z" fill="#d3dde6"/><path d="m110.805 110.514v-49.428a4.091 4.091 0 0 1 4.08-4.08h-15.417a4.091 4.091 0 0 0 -4.08 4.08v49.428a4.092 4.092 0 0 0 4.08 4.08h15.417a4.092 4.092 0 0 1 -4.08-4.08z" fill="#56a5e6"/><path d="m110.805 206.747v-49.457a4.067 4.067 0 0 1 4.08-4.051h-15.417a4.067 4.067 0 0 0 -4.08 4.051v49.457a4.086 4.086 0 0 0 4.08 4.051h15.417a4.086 4.086 0 0 1 -4.08-4.051z" fill="#35a343"/><path d="m110.805 302.951v-49.428a4.092 4.092 0 0 1 4.08-4.08h-15.417a4.092 4.092 0 0 0 -4.08 4.08v49.428a4.067 4.067 0 0 0 4.08 4.049h15.417a4.067 4.067 0 0 1 -4.08-4.051z" fill="#56a5e6"/><path d="m110.805 399.155v-49.428a4.093 4.093 0 0 1 4.08-4.081h-15.417a4.093 4.093 0 0 0 -4.08 4.081v49.428a4.092 4.092 0 0 0 4.08 4.08h15.417a4.092 4.092 0 0 1 -4.08-4.08z" fill="#35a343"/><path d="m346.171 291.789a90.2 90.2 0 0 1 75.687-88.976c2.39-.38 4.779-.671 7.228-.875-2.39-.2-4.809-.291-7.228-.291a90.157 90.157 0 0 0 0 180.313c2.419 0 4.838-.117 7.228-.292-2.449-.2-4.838-.5-7.228-.874a90.2 90.2 0 0 1 -75.687-89z" fill="#cf3a45"/></g></svg>