<svg clip-rule="evenodd" fill-rule="evenodd" height="512" stroke-linejoin="round" stroke-miterlimit="2" viewBox="0 0 356 356" width="512" xmlns="http://www.w3.org/2000/svg" xmlns:xlink="http://www.w3.org/1999/xlink"><linearGradient id="_Linear1" gradientTransform="matrix(266.667 238.889 -238.889 266.667 33.333 72.222)" gradientUnits="userSpaceOnUse" x1="0" x2="1" y1="0" y2="0"><stop offset="0" stop-color="#e5f6ed"/><stop offset="1" stop-color="#badedf"/></linearGradient><linearGradient id="_Linear2" gradientTransform="matrix(200 -94.444 94.444 200 105.556 194.444)" gradientUnits="userSpaceOnUse" x1="0" x2="1" y1="0" y2="0"><stop offset="0" stop-color="#f6c124"/><stop offset="1" stop-color="#f44e24"/></linearGradient><linearGradient id="lg1"><stop offset="0" stop-color="#4b98aa"/><stop offset="1" stop-color="#2a6183"/></linearGradient><linearGradient id="_Linear3" gradientUnits="userSpaceOnUse" x1="250" x2="338.889" xlink:href="#lg1" y1="44.444" y2="44.444"/><linearGradient id="_Linear4" gradientUnits="userSpaceOnUse" x1="105.556" x2="161.112" xlink:href="#lg1" y1="244.444" y2="244.444"/><linearGradient id="_Linear5" gradientTransform="matrix(222.222 0 0 11.111 61.111 288.889)" gradientUnits="userSpaceOnUse" x1="0" x2="1" xlink:href="#lg1" y1="0" y2="0"/><g id="Exp-5.-G"><g><path d="m311.111 94.444c0-5.893-2.341-11.546-6.509-15.713-4.167-4.168-9.82-6.509-15.713-6.509-52.034 0-181.299 0-233.333 0-5.894 0-11.546 2.341-15.714 6.509-4.167 4.167-6.509 9.82-6.509 15.713v205.556c0 5.894 2.342 11.546 6.509 15.714 4.168 4.167 9.82 6.508 15.714 6.508h233.333c5.893 0 11.546-2.341 15.713-6.508 4.168-4.168 6.509-9.82 6.509-15.714 0-47.433 0-158.122 0-205.556z" fill="url(#_Linear1)"/><path d="m111.438 189.12 54.997 54.997 141.422-141.421-54.997-54.997z" fill="url(#_Linear2)"/><path d="m307.857 102.696s3.529-3.529 7.856-7.857c4.168-4.167 6.509-9.819 6.509-15.713s-2.341-11.546-6.508-15.714c-7.39-7.39-16.181-16.18-23.571-23.57-4.167-4.167-9.82-6.509-15.713-6.509-5.894 0-11.546 2.342-15.714 6.509-4.327 4.327-7.856 7.857-7.856 7.857z" fill="url(#_Linear3)"/><path d="m166.435 244.117s-39.328 4.916-55.766 6.971c-1.701.213-3.405-.372-4.617-1.584-1.213-1.212-1.797-2.916-1.585-4.618 2.055-16.437 6.971-55.766 6.971-55.766s10.927 2.185 16.481 3.296c1.955.391 3.55 1.8 4.181 3.691 1.555 4.665 4.492 13.478 5.958 17.877.553 1.658 1.855 2.96 3.514 3.513 4.398 1.466 13.212 4.404 17.876 5.959 1.892.63 3.3 2.226 3.691 4.181 1.111 5.554 3.296 16.48 3.296 16.48z" fill="url(#_Linear4)"/><path d="m66.667 294.444h211.111c3.066 0 5.555-2.489 5.555-5.555s-2.489-5.556-5.555-5.556h-211.111c-3.067 0-5.556 2.49-5.556 5.556s2.489 5.555 5.556 5.555z" fill="url(#_Linear5)"/></g></g></svg>